<svg xmlns="http://www.w3.org/2000/svg" xmlns:xlink="http://www.w3.org/1999/xlink" width="1080" zoomAndPan="magnify" viewBox="0 0 810 809.999993" height="1080" preserveAspectRatio="xMidYMid meet" version="1.0"><defs><g/></defs><rect x="-81" width="972" fill="#ffffff" y="-80.999999" height="971.999992" fill-opacity="1"/><rect x="-81" width="972" fill="#ffffff" y="-80.999999" height="971.999992" fill-opacity="1"/><g fill="#000000" fill-opacity="1"><g transform="translate(147.710094, 633.495321)"><g><path d="M 271.28125 -491.953125 C 314.84375 -491.953125 352.671875 -484.6875 384.765625 -470.15625 C 416.859375 -455.632812 441.570312 -435.019531 458.90625 -408.3125 C 476.25 -381.601562 484.921875 -349.976562 484.921875 -313.4375 C 484.921875 -277.363281 476.25 -245.851562 458.90625 -218.90625 C 441.570312 -191.96875 416.859375 -171.351562 384.765625 -157.0625 C 352.671875 -142.78125 314.84375 -135.640625 271.28125 -135.640625 L 172.1875 -135.640625 L 172.1875 0 L 58.328125 0 L 58.328125 -491.953125 Z M 264.953125 -228.40625 C 299.148438 -228.40625 325.148438 -235.78125 342.953125 -250.53125 C 360.753906 -265.289062 369.65625 -286.257812 369.65625 -313.4375 C 369.65625 -341.082031 360.753906 -362.285156 342.953125 -377.046875 C 325.148438 -391.804688 299.148438 -399.1875 264.953125 -399.1875 L 172.1875 -399.1875 L 172.1875 -228.40625 Z M 264.953125 -228.40625 "/></g></g></g></svg>